<?xml version="1.0" encoding="utf-8"?>
<!-- Generator: Adobe Illustrator 23.1.0, SVG Export Plug-In . SVG Version: 6.00 Build 0)  -->
<svg version="1.1" id="Layer_1" xmlns="http://www.w3.org/2000/svg" xmlns:xlink="http://www.w3.org/1999/xlink" x="0px" y="0px"
	 viewBox="0 0 100 100" style="enable-background:new 0 0 100 100;" xml:space="preserve">
<path d="M101.6,74L91.5,3.7C91.4,2,89.8,0.7,88,0.9L13.2,12.3c-4.3,0.4-8,4.1-9.3,7.8c-0.7,2,0,5.4,0,5.4c1,5.2,6.9,7.1,9.3,7.1h54
	c1.4,0,2.7,0.9,3.3,2.2l5,11.9c-2.3-2.6-3.8-10.2-16.9-8c-10,1.7-11.3,14.5-11.3,17.1c0,0,0,0.1,0,0.1c0,4.3,1.2,8.3,3.4,10.7
	c6,6.6,11.3,8.3,15.4,10.5c10.8,5.9,5.8,16-0.9,16c-1.3,0-23.6,0.1-24.9,0.1c0.2-0.5,0.3-1,0.5-1.6c0,0,0-0.1,0.1-0.1
	c1.2-2.6,1.9-6.3,1.9-10.9l0-30.7c0-1.3,0.1-2.4,0.4-3c0.3-0.7,0.7-1.2,1.2-1.5c0.5-0.3,0.4-0.5,1.7-0.5l0.4,0l0-6l-37.1,0l0,0l0,6
	l0,0l0,2.9l22.2,0c1.4,0,1.9,0.2,1.9,0.2c0,0,0,0,0,0c0,0,0.1,0,0.1,0.2c0,0,0.2,0.7,0.2,3.1l0,30.3c0,3.8-0.5,5.7-0.9,6.7
	c-0.6,1.3-1.5,2.4-2.9,3.4c-1.4,1-3,1.4-4.8,1.4c-2.1,0-3.8-0.6-5-1.8c-1.2-1.1-1.7-2.3-1.7-3.5c0-0.1,0-0.6,0.3-2.1
	c0.3-1.8,0.3-2.4,0.3-2.9c0-2-0.4-3.8-1.5-5c-2.1-2.4-5.5-1.3-6.7,0.5c-0.9,1.3-1.4,3-1.6,5c-0.1,0.5-0.1,1-0.1,1.5c0,0,0,0,0,0
	c0,0.6,0,1.1,0.1,1.5c0,0,0,0,0,0C8.9,86.7,9,87,9,87.4c0.5,3.1,1.9,5.8,4.2,8.3c3,3.1,6.9,4.7,11.8,4.7c0.1,0,39.7,0,39.6,0
	c0,0,0.1,0,0.1,0c15,0.6,19.1-10.2,17.5-18.4c-0.3-2.1-0.9-4.2-2.2-6.3c-4.1-6.9-14.5-9-20.2-13.1c-1.4-1-4.1-2.9-4.7-6.1
	c-0.9-4.9,1.6-10.3,6-11.4c6-1.6,8.8,6,11.5,12.2c0.7,1.7,2.3,2.9,4.1,3c3.2,0.2,5.7-2.7,5-5.8l-5.4-26.6c-0.3-1.6-1.8-2.8-3.4-2.8
	l-57.4-0.2c-1.2,0-4.8,0-4.8-1.6l0.1-0.7c0-1.5,3.5-3.4,4.7-3.4L81.9,8.8c1.8-0.3,3.4,1,3.5,2.8L95,74.6c0.1,1.9,1.8,3.3,3.7,3.1
	C100.5,77.4,101.7,75.7,101.6,74z"/>
</svg>
