<?xml version="1.0" encoding="utf-8"?>
<!-- Generator: Adobe Illustrator 23.1.0, SVG Export Plug-In . SVG Version: 6.00 Build 0)  -->
<svg version="1.1" id="Layer_1" xmlns="http://www.w3.org/2000/svg" xmlns:xlink="http://www.w3.org/1999/xlink" x="0px" y="0px"
	 viewBox="0 0 118.7 126" style="enable-background:new 0 0 118.7 126;" xml:space="preserve">
<path d="M115,56.1L71.1,4.3c-0.9-1.4-3-1.7-4.4-0.7L7.6,50.9C4,53.3,2.7,58.4,3.4,62.3C3.8,64.4,6.1,67,6.1,67
	c3.5,4,9.5,2.7,11.6,1.5l46.8-27c1.2-0.7,2.8-0.6,4,0.3l6.1,4.7c-3.4-0.7-9.2-5.7-18.2,4c-6.9,7.5,0,18.4,1.5,20.4L58,71
	c2.6,3.4,6,5.8,9.2,6.4c8.8,1.5,14-0.4,18.6-1.1c12.2-2,14.4,9.1,9.1,13.2c-1,0.8-18.6,14.5-19.6,15.3c-0.1-0.5-0.4-1-0.6-1.6
	c0,0-0.1-0.1,0-0.1c-0.6-2.8-2.4-6.1-5.2-9.8L50.7,68.9c-0.8-1-1.4-2-1.5-2.6c-0.2-0.7-0.2-1.4,0-1.9s0-0.6,1-1.4l0.3-0.2L46.9,58
	L17.6,80.7l3.7,4.7l1.8,2.3l17.5-13.6c1.1-0.9,1.6-1,1.6-1s0.1-0.1,0.2,0.1c0,0,0.6,0.4,2.1,2.3l18.5,24c2.3,3,3.1,4.8,3.4,5.8
	c0.3,1.4,0.3,2.8-0.2,4.5c-0.5,1.6-1.5,2.9-2.9,4c-1.7,1.3-3.4,1.9-5.1,1.6c-1.6-0.1-2.8-0.8-3.5-1.7c-0.1-0.1-0.4-0.5-1-1.8
	c-0.9-1.6-1.2-2.1-1.5-2.5c-1.2-1.6-2.6-2.8-4.2-3c-3.1-0.6-5.1,2.3-5,4.5c0.1,1.6,0.7,3.2,1.8,4.9c0.2,0.5,0.5,0.9,0.8,1.2
	c0.4,0.5,0.7,0.9,1,1.1c-0.1,0.6,0.2,0.7,0.4,1.1c2.3,2.1,5.1,3.4,8.4,4c4.3,0.6,8.3-0.5,12.2-3.5c0.1-0.1,31.4-24.3,31.3-24.3
	l0.1-0.1c12.2-8.7,8.8-19.8,2.6-25.3c-1.5-1.5-3.3-2.8-5.6-3.6c-7.5-2.9-17,1.8-24,2c-1.7,0.1-5,0.2-7.5-1.9
	c-3.7-3.3-5-9.1-2.2-12.7c3.8-4.9,10.6-0.6,16.6,2.6c1.6,0.9,3.6,0.9,5.1-0.1c2.1-1.4,2.6-4.1,1.6-6.1L70,32.8
	c-1.1-1.2-3-1.5-4.3-0.7L15.8,60.6c-1,0.6-4.2,2.4-5,1L10.6,61c-0.8-1.3,1.3-4.7,2.4-5.3l52.3-42.2c1.4-1.2,3.4-0.8,4.4,0.7
	L109.5,60c1,1.6,3.2,2,4.8,0.8C115.7,59.6,115.9,57.5,115,56.1z"/>
</svg>
